<?xml version="1.0" encoding="utf-8"?>
<!-- Generator: Adobe Illustrator 23.0.2, SVG Export Plug-In . SVG Version: 6.00 Build 0)  -->
<svg version="1.1" id="图层_1" xmlns="http://www.w3.org/2000/svg" xmlns:xlink="http://www.w3.org/1999/xlink" x="0px" y="0px"
	 viewBox="0 0 128 128" style="enable-background:new 0 0 128 128;" xml:space="preserve">
<style type="text/css">
	.st0{fill:#FFFFFF;}
	.st1{fill:#FFFFFF;stroke:#FFFFFF;stroke-width:2;stroke-miterlimit:10;}
</style>
<path class="st0" d="M36.4,53.2c-2.9,0-5.3,2.4-5.3,5.3s2.4,5.3,5.3,5.3h42.2c2.9,0,5.3-2.4,5.3-5.3s-2.4-5.3-5.3-5.3H36.4z"/>
<path class="st0" d="M103.3,33.7L82.2,12.6c-1.1-0.9-2.4-1.6-3.7-1.6H36.4c-1.4,0-2.8,0.5-3.7,1.6L11.6,33.7
	C10.7,34.7,10,36,10,37.4v52.7c0,8.7,7.1,15.8,15.8,15.8h42.7c-2.4-3.4-4.3-7.1-5.8-10.5l0,0H25.8c-2.9,0-5.3-2.4-5.3-5.3V42.6h73.8
	v16.7c3.7,0.3,7.2,1.2,10.5,2.5V37.4C104.9,36,104.4,34.6,103.3,33.7z M27.9,32.1l10.5-10.5h37.8l10.5,10.5H27.9z"/>
<path class="st1" d="M92.9,116.2c-14.4,0-26-11.6-26-26s11.6-26,26-26s26,11.6,26,26.1C118.9,104.6,107.3,116.2,92.9,116.2
	 M92.9,69.4c-11.3,0-20.7,9.4-20.8,20.7c0,11.5,9.2,20.8,20.7,20.8s20.8-9.2,20.8-20.6C113.7,78.7,104.4,69.4,92.9,69.4"/>
<path class="st0" d="M97.1,90.2l5.7-5.7c1.2-1.2,1.2-3,0-4.2c-1.2-1.2-3-1.2-4.2,0L92.9,86l-5.7-5.7c-1.2-1.2-3-1.2-4.2,0
	c-1.2,1.2-1.2,3,0,4.2l5.7,5.7L83,95.9c-1.2,1.2-1.2,3,0,4.2c0.5,0.5,1.3,0.9,2.1,0.9c0.8,0,1.6-0.3,2.1-0.9l5.7-5.7l5.7,5.7
	c0.5,0.5,1.3,0.9,2.1,0.9s1.6-0.3,2.1-0.9c1.2-1.2,1.2-3,0-4.2L97.1,90.2z"/>
</svg>
