<?xml version="1.0" encoding="utf-8"?>
<!-- Generator: Adobe Illustrator 23.0.2, SVG Export Plug-In . SVG Version: 6.00 Build 0)  -->
<svg version="1.1" id="图层_1" xmlns="http://www.w3.org/2000/svg" xmlns:xlink="http://www.w3.org/1999/xlink" x="0px" y="0px"
	 viewBox="0 0 128 128" style="enable-background:new 0 0 128 128;" xml:space="preserve">
<style type="text/css">
	.st0{fill:#FFFFFF;}
</style>
<path class="st0" d="M107.9,11H23.1C16.4,11,11,16.4,11,23.1v84.8c0,6.7,5.4,12.1,12.1,12.1h84.8c6.7,0,12.1-5.5,12.1-12.1V23.1
	C120,16.4,114.5,11,107.9,11z M107.9,107.9H23.1V23.1h84.8C107.9,23.1,107.9,107.9,107.9,107.9z M35.2,53.4h12.1v42.4H35.2V53.4z
	 M59.4,35.2h12.1v60.6H59.4C59.4,95.8,59.4,35.2,59.4,35.2z M83.7,71.6h12.1v24.2H83.7V71.6z"/>
</svg>
