<?xml version="1.0" encoding="utf-8"?>
<!-- Generator: Adobe Illustrator 23.0.2, SVG Export Plug-In . SVG Version: 6.00 Build 0)  -->
<svg version="1.1" id="图层_1" xmlns="http://www.w3.org/2000/svg" xmlns:xlink="http://www.w3.org/1999/xlink" x="0px" y="0px"
	 viewBox="0 0 128 128" style="enable-background:new 0 0 128 128;" xml:space="preserve">
<style type="text/css">
	.st0{fill:#FFFFFF;}
</style>
<path class="st0" d="M18.8,70.1v36.5h93.7V70.1H18.8z M18.8,59.7h93.7c5.7,0,10.4,4.7,10.4,10.4v36.5c0,5.7-4.7,10.4-10.4,10.4H18.8
	c-5.7,0-10.4-4.7-10.4-10.4V70.1C8.4,64.4,13.1,59.7,18.8,59.7z M107.4,43c0.5,2.6-1,5.7-3.6,6.2c-2.6,0.5-5.7-1-6.2-3.6l-5.2-16.1
	v-1H39.7v0.5l-5.2,16.1c-0.5,2.6-3.6,4.7-6.2,3.6c-2.6-0.5-4.7-3.6-3.6-6.2l5.2-15.1c0-5.2,4.2-9.4,9.9-9.4h52.1
	c5.7,0,9.9,4.2,10.4,9.9C102.2,27.9,107.4,43,107.4,43z"/>
<path class="st0" d="M29.3,88.3c0,4.3,3.5,7.8,7.8,7.8s7.8-3.5,7.8-7.8s-3.5-7.8-7.8-7.8S29.3,84,29.3,88.3z"/>
<path class="st0" d="M86.5,88.3c0,4.3,3.5,7.8,7.8,7.8c4.3,0,7.8-3.5,7.8-7.8s-3.5-7.8-7.8-7.8C90,80.5,86.5,84,86.5,88.3z"/>
</svg>
